<?xml version="1.0" encoding="utf-8"?>
<!-- Generator: Adobe Illustrator 25.3.1, SVG Export Plug-In . SVG Version: 6.00 Build 0)  -->
<svg version="1.1" id="Layer_1" xmlns="http://www.w3.org/2000/svg" xmlns:xlink="http://www.w3.org/1999/xlink" x="0px" y="0px"
	 viewBox="0 0 1080 1080" style="enable-background:new 0 0 1080 1080;" xml:space="preserve">
<style type="text/css">
	.st0{fill:#F2F2F2;}
	.st1{fill:#4D008D;}
	.st2{fill:#DB2697;}
	.st3{fill:#4FB5E6;}
	.st4{fill:#9E4EEA;}
	.st5{fill:#F78DD4;}
</style>
<g>
	<ellipse class="st0" cx="540" cy="782.8" rx="379" ry="31"/>
	<path d="M784.1,680.2c-4-5.1-11.4-6-16.5-2c-5.1,4-6,11.4-2,16.5c15.4,19.6,11.9,48.2-7.7,63.6c-9.5,7.5-21.4,10.8-33.4,9.3
		c-12-1.5-22.7-7.5-30.2-17L599,639c-4.2-4.9-11.6-5.5-16.6-1.3c-4.9,4.2-5.5,11.6-1.3,16.6l94.9,111c13.6,17.2,33.7,26.1,54.1,26.1
		c14.8,0,29.8-4.8,42.4-14.6c14.5-11.3,23.6-27.6,25.9-45.9C800.4,712.7,795.4,694.7,784.1,680.2z"/>
	<path class="st1" d="M376.8,369.4c5.3-5.7,8.1-8.2,8.5-8.5c-0.1,0.1-0.1,0.1-8.9,8.9L376.8,369.4"/>
	<path class="st2" d="M376.7,369.4c4.4-5.5,6.9-8,7.3-8.2c0,0.1,0,0.1-7.6,8.6L376.7,369.4"/>
	<path class="st3" d="M376.7,369.4c3.4-5,5.5-7.5,5.9-7.8c0,0.2,0,0.2-6.1,8.1L376.7,369.4"/>
	<path class="st4" d="M376.6,369.4c2.5-4.7,4.1-6.9,4.4-7.2c0.1,0.2,0.1,0.2-4.6,7.5L376.6,369.4"/>
	<path class="st5" d="M409.5,339.9c9.7-7.7,15.5-10.9,16.1-11.3c-11.4,8-22.6,16.8-33.5,26.4C392.2,355,399.7,347.7,409.5,339.9"/>
	<path class="st3" d="M405,340.7c8.4-7.5,15.6-12.3,16.6-12.2c-0.8,1.8-32,27.6-32.3,27.8C389.8,355.5,397,347.8,405,340.7"/>
	<path class="st4" d="M400,342.2c7-7,13.4-11.7,14.6-11.9c0,0.4-0.1,0.6-2.6,3.1c-0.2,0.2-24.3,23.1-24.8,23.5
		C387.5,356,393.6,348.6,400,342.2"/>
	<path class="st5" d="M394.6,344.4c6-7,11.8-11.6,12.5-11.3c0,0.2,0,0.5-1.8,2.5c-0.2,0.2-19.8,21.7-20.3,22.1
		C385,357,389.6,350.1,394.6,344.4"/>
	<path class="st1" d="M446.3,312c9.2-5.5,18.4-9.7,20.4-9.8l0.1,0.3c-1.9,2.1-35.4,21.2-36.9,21.7l-0.2-0.2
		C430.9,322.4,438.2,316.9,446.3,312"/>
	<path class="st2" d="M436.1,314.6c8.7-5.7,17.8-10.1,19.2-9.9c-0.7,1.9-32.4,21-32.6,21.1l-0.2,0
		C422.5,324.5,429.2,319.1,436.1,314.6"/>
	<path class="st3" d="M424.9,318.5c7.7-5.5,15.8-9.6,17.4-9.9l0.1,0.2c-0.8,1-26.2,18.7-28,19.5l-0.3,0.1l-0.1-0.2
		C414.8,326.7,419.1,322.6,424.9,318.5"/>
	<path class="st4" d="M412.9,323.7c6.4-5.1,14.3-9.3,15.7-9.6l0.1,0.2c-0.6,0.7-20.8,16.4-22.9,17.5c-0.1,0-0.3,0.1-0.5,0.1
		l-0.1-0.1C405.2,330.8,408.4,327.3,412.9,323.7"/>
	<path class="st5" d="M494.9,289.9c8.3-3.3,15.8-5.4,19.8-6.3c-12.5,4.2-24.8,9.1-37,14.8C480.5,296.1,488.3,292.4,494.9,289.9"/>
	<path class="st3" d="M480.3,292.5c9.5-4,20.7-7.5,22.9-7.6c-0.9,1.6-36.8,15.5-37.1,15.5c-0.2,0-0.4,0-0.6,0
		C466.1,299.2,473.5,295.4,480.3,292.5"/>
	<path class="st4" d="M464.1,297.4c9.3-4.1,20.6-7.9,21.9-8.2c-0.7,0.5-31,13.9-33.1,14.6c-0.2,0.1-0.5,0.1-0.7,0.2l-0.1-0.2
		C453.2,302.7,458.2,300,464.1,297.4"/>
	<path class="st5" d="M446.6,304.3c0.9-0.4,1.8-0.8,2.8-1.3l0.7-0.3c5.1-2.1,11.8-4.9,16.9-6.9c-9.8,3.8-18.8,9.1-28.4,13.2
		c-0.6,0.2-0.8,0.3-1.1,0.3C438,308.3,445.8,304.7,446.6,304.3"/>
	<path class="st1" d="M530.8,276.9c11.5-2.7,24.7-4.9,26.1-4.9c-0.7,0.4-37.7,9.3-40.7,9.8c-0.3,0-0.6,0.1-0.8,0
		C516.2,280.4,530.6,277,530.8,276.9"/>
	<path class="st2" d="M528.2,277.4l2.1-0.5c-1.3,0.3-1.3,0.3-31.4,8.4c-0.8,0.2-0.9,0.2-1.3,0.3c0.3-0.2,0.6-0.3,3.4-1.1
		C509.1,282.3,520,279.2,528.2,277.4"/>
	<path class="st5" d="M595,267.4c-8.2,0.6-16.4,1.5-24.5,2.7c0.4-0.2,2.3-0.6,9.7-1.4L595,267.4"/>
	<path class="st2" d="M376.5,369.5c1.6-4.5,2.6-6.2,2.9-6.5l0,0c-0.1,0.6-0.5,1.4-3,6.7L376.5,369.5"/>
	<path class="st3" d="M376.5,369.5c0.5-4.7,1.2-5.6,1.3-5.6l0.1,0c0.1,0.6-0.4,2.5-1.3,5.8L376.5,369.5"/>
	<path class="st4" d="M376.4,369.6c-0.9-3.7-0.5-4.5-0.4-4.6l0.1,0c0.3,0.4,0.4,2,0.3,4.8L376.4,369.6"/>
	<path class="st2" d="M376.3,369.6c-1.9-2.4-2.2-3.2-2-3.5c0.4-0.1,1.1,1.2,2.1,3.6L376.3,369.6"/>
	<path class="st3" d="M376.3,369.7c-1.1-0.5-3.8-1.8-3.6-2.3c0.2-0.1,1,0,3.8,2.4L376.3,369.7"/>
	<path class="st1" d="M376.2,369.7c-2.8-0.4-4.7-0.6-5.2-1l0-0.1c0.4-0.1,1.9-0.1,5.4,1.1L376.2,369.7"/>
	<path class="st2" d="M376.1,369.8c-4,0.3-6,0.5-6.6,0.3l0,0c0.5-0.2,2.7-0.5,6.9-0.3L376.1,369.8"/>
	<path class="st3" d="M376.1,369.8c-6.9,1.6-7.3,1.7-7.9,1.7l0,0c0.4-0.2,3.1-1,8.3-1.7L376.1,369.8"/>
	<path class="st4" d="M376,369.9c-8.9,3-8.9,3-9,2.9c0.5-0.3,3.5-1.5,9.4-3C376.3,369.8,376.2,369.8,376,369.9"/>
	<path class="st2" d="M376,369.9c-9.7,4.1-9.7,4.1-9.9,4.1c0.5-0.4,4.1-2,10.3-4.2C376.3,369.8,376.1,369.9,376,369.9"/>
	<path class="st3" d="M376,370c-10.4,5.1-10.4,5.1-10.6,5.2c0.5-0.4,4.5-2.5,11-5.4C376.3,369.8,376.1,369.9,376,370"/>
	<path class="st4" d="M376,370c-10.9,6.1-10.9,6.1-11,6.1c0.4-0.3,4-2.6,11.5-6.4C376.3,369.8,376.1,369.9,376,370"/>
	<path class="st2" d="M376,370c-11.1,6.9-11.1,6.9-11.2,7c0.4-0.4,4.5-3.1,11.7-7.3C376.3,369.8,376.1,369.9,376,370"/>
	<path class="st3" d="M376,370.1c-11.1,7.7-11.1,7.7-11.2,7.7c0.4-0.4,4.4-3.3,11.7-8C376.3,369.8,376.1,370,376,370.1"/>
	<path class="st1" d="M376,370.1c-10.8,8.2-10.8,8.2-10.9,8.3c0.4-0.4,4.2-3.5,11.4-8.6C376.3,369.8,376.1,370,376,370.1"/>
	<path class="st2" d="M376,370.1c-10.3,8.6-10.3,8.6-10.4,8.7c0.3-0.4,4-3.6,10.9-9C376.3,369.8,376.1,370,376,370.1"/>
	<path class="st3" d="M376,370.1c-9.4,8.7-9.4,8.7-9.7,8.9c0.2-0.4,3.6-3.6,10.1-9.2C376.3,369.9,376.2,370,376,370.1"/>
	<path class="st4" d="M376.1,370.1c-8.4,8.7-8.4,8.7-8.7,8.9c0.2-0.3,3-3.5,9-9.2L376.1,370.1"/>
	<path class="st3" d="M388.9,347c4.5-6.4,9.2-10.4,10.2-10.4c0.1,0.1,0.3,0.4-1.5,2.7c-0.1,0.2-14.6,19-15.1,19.4
		C382.3,358.2,385.5,351.9,388.9,347"/>
	<path class="st1" d="M383,350.2c3.2-6.5,7.7-10.1,7.9-9.2c0.4,1.2-10.9,18.9-11,19.1l-0.1-0.1C379.8,359,380.9,354.4,383,350.2"/>
	<path class="st5" d="M376.9,353.9c1-5.7,5-8.8,5.7-7.9c0.9,1.3-5.3,15.5-5.3,15.6l-0.1,0C376.7,361.2,376.4,356.8,376.9,353.9"/>
	<path class="st3" d="M370.9,357.9c-1.6-4.4,2.3-7.1,3.5-6.5c1.8,0.9,0.6,11.4,0.2,11.9C373.9,363.6,371.5,359.5,370.9,357.9"/>
	<path class="st4" d="M365,362.3c-4.6-2.8-0.3-4.8,0.5-5c2-0.5,3.2,0.9,3.6,1.4c1.2,1.5,3.2,6,3,6.5l-0.1,0.1
		C371.1,365.5,365.1,362.3,365,362.3"/>
	<path class="st5" d="M359.3,366.9c-1.8-0.1-6-0.4-3.7-2.4c0.3-0.2,2.7-2.1,6.7-1.4c3.1,0.6,7.3,3.5,7.2,4l-0.1,0.1
		C368.7,367.5,359.7,366.9,359.3,366.9"/>
	<path class="st3" d="M353.8,371.7c-3.4,0.6-7.7,1.4-6.5-0.1c3.5-4.3,18.2-4.2,19.7-2.5l0,0.1C366.9,369.3,366.9,369.3,353.8,371.7"
		/>
	<path class="st4" d="M348.9,376.7c-5.8,2-8.4,2.8-9.1,2.5c-0.2-0.7,4-3.5,10.4-5.5c6.4-2,13.9-2.5,14.5-2.3l0,0.1
		c-0.4,0.2-0.8,0.4-3.7,1.2C356.6,374.1,353.7,375,348.9,376.7"/>
	<path class="st5" d="M344.7,381.4c-8.4,3.8-10.7,4.8-11.3,4.5c1.7-3.8,24.9-12.5,29.4-12.4l0,0.1c-0.3,0.2-0.4,0.3-3.1,1.4
		C355.4,376.7,351.8,378.2,344.7,381.4"/>
	<path class="st2" d="M400.5,330c5-4.5,13.2-9.2,13.9-9c-0.1,0.7-15.8,14.1-17.8,15.3c-0.4,0.2-1.2,0.5-0.7-0.7
		C396,335.3,396.9,333.2,400.5,330"/>
	<path class="st3" d="M387.7,337.3c3.3-3.6,11-8.3,12-8.4l0.1,0.1c-0.2,0.8-10.3,11-12.7,12.5c-1.7,0.9-1.5-0.4-1.3-1
		C385.9,339.9,386.3,338.8,387.7,337.3"/>
	<path class="st4" d="M374.8,345.5c1.3-2.6,9.6-8,10.4-7.7c0.2,0.6-5.2,7.7-7.8,9.5c-2.3,1.4-3.1-0.2-2.9-1.1
		C374.6,346,374.7,345.7,374.8,345.5"/>
	<path class="st2" d="M362,354.5c-0.4-0.6,0.7-1.6,2.4-3c0.1,0,5.6-4.4,6.8-4.2c1.2,0.1-1.3,4.9-3,6.3l-0.4,0.3
		C365.3,355.5,362.4,355,362,354.5"/>
	<path class="st3" d="M349.5,364.1c-0.9,0.2-1.2,0.1-1-0.4c0.5-0.9,10.3-9.5,11.2-6c0.2,0.7,0.1,1.8-1.4,3.1
		C355.5,362.9,349.6,364.1,349.5,364.1"/>
	<path class="st1" d="M337.6,374.3c-2.1,0.9-2.4,1-2.7,1l0-0.1c0.3-0.9,6.2-5.7,9.8-7.7c3.2-1.8,5.1-1.4,5.4-0.6
		c0.2,0.5-0.4,1.1-0.8,1.4C348.4,369,347.2,370,337.6,374.3"/>
	<path class="st2" d="M326.4,384.8c-3.7,2.1-4.3,2.4-4.7,2.4c0.2-0.9,6.3-6.3,11.2-9.3c4.5-2.8,7.9-3.3,8.2-2.7
		c0.1,0.3-0.2,0.5-0.5,0.9C339.3,377.4,339.3,377.4,326.4,384.8"/>
	<path class="st3" d="M316.6,395.2c-4.7,3.2-6.1,4.1-6.8,4.3l-0.1-0.2c2.9-4.6,20.7-17.3,23.4-15.9c0,0.2,0,0.3-0.3,0.6
		C332,384.9,332,384.9,316.6,395.2"/>
	<path class="st4" d="M308.6,405c-5.9,4.4-7.9,5.9-8.8,6.2l-0.1-0.2c3.1-5.2,24.4-21,26.9-19.9c0,0.1-0.1,0.3-0.2,0.4
		C325.7,392.2,325.7,392.2,308.6,405"/>
	<path class="st3" d="M341.4,385.7c-11.5,6.2-12.2,6.5-13.1,6.6c0.4-2.9,26.7-15.8,32.9-16.8l0,0c-0.3,0.2-0.5,0.4-3.3,1.7
		C353.3,379.5,349.1,381.6,341.4,385.7"/>
	<path class="st1" d="M338.9,389.8c-13.5,8.2-13.5,8.2-14.6,8.5l-0.1-0.2c4.5-5.7,34.1-21.3,35.7-20.7c-0.3,0.2-0.5,0.4-3.5,2.1
		C351.9,382,347.1,384.7,338.9,389.8"/>
	<path class="st5" d="M337.1,393.4c-14.4,9.8-14.4,9.8-15.7,10.3l-0.2-0.1c3.8-5.6,35.6-24.7,37.8-24.6
		C352.1,384.3,344.4,388.5,337.1,393.4"/>
	<path class="st3" d="M336.3,396.6c-15.7,11.7-15.7,11.7-16.7,12c1-4.2,36.8-27.8,39-28.1C351.5,386.4,343.6,391.1,336.3,396.6"/>
	<path class="st4" d="M336.3,399.3c-15.9,13-15.9,13-17.1,13.4c-0.1-3.6,36.6-30.3,39.2-31C351.5,388.2,343.6,393.4,336.3,399.3"/>
	<path class="st5" d="M337.1,401.5c-14.8,13.2-15.7,14-17.1,14.7l-0.1-0.2c4.1-6.8,35.5-31.9,38.7-33.1
		C352,389.6,344.2,395.1,337.1,401.5"/>
	<path class="st3" d="M338.9,403c-12.6,12.3-16,15.6-17,15.7c1.6-5.3,34.2-33.7,37.4-35.1c-0.5,0.5-0.5,0.5-3.1,3
		C350.8,391.5,346.5,395.6,338.9,403"/>
	<path class="st4" d="M341.5,403.9c-10.3,11.1-14.9,16.1-16.3,16.4c0.4-4.7,31.6-34.4,35-36.2c-0.4,0.5-0.4,0.5-2.8,3
		C352.4,392.3,348.7,396.1,341.5,403.9"/>
	<path class="st5" d="M345.1,404c-7.8,9.5-13.5,16.3-15.1,16.9c-0.9-4,29.3-35.2,31.8-36.7c-0.3,0.5-0.3,0.5-2.5,3
		C354.1,393.1,351.2,396.5,345.1,404"/>
	<path class="st2" d="M302.4,413.8c-7.4,5.9-9.7,7.8-10.6,8.1c-0.2-3.1,25.2-23.6,29.5-23.9l0,0.3
		C320.7,399.1,320.7,399.1,302.4,413.8"/>
	<path class="st3" d="M297.9,422.1c-8.4,7.3-11.4,9.9-12.3,9.9c0.8-4,25.9-25.9,31.7-27.5l0.1,0.2
		C316.8,405.6,316.8,405.6,297.9,422.1"/>
	<path class="st4" d="M295.1,429.4c-9,8.4-12.2,11.3-13.4,11.7c-0.4-1.4,7.8-10.2,13.7-15.6c9.5-8.8,18.3-15.1,19.5-15.2l0,0.1
		C314.2,411.5,314.2,411.5,295.1,429.4"/>
	<path class="st2" d="M294.2,435.7c-9,9.1-13.4,13.4-14.5,13.3c-0.9-3.2,28.2-32.2,33.8-33.7l0.1,0.1
		C313.2,416.6,311.3,418.5,294.2,435.7"/>
	<path class="st3" d="M295.2,440.9c-9.9,10.8-13.7,14.5-15,14.8l-0.1-0.1c0.5-5.9,32.1-36.7,33.9-35.9
		C313.6,420.4,313.5,420.9,295.2,440.9"/>
	<path class="st1" d="M298,444.8c-10,11.9-14.4,16.4-15.5,16.1c-1.1-5,30.4-38.1,32.9-37.9C315.4,423.5,315.4,424.2,298,444.8"/>
	<path class="st2" d="M302.7,447.4c-11.6,15.2-14.3,17.2-15.4,17.2c-2.8-3.9,27.8-38.9,31.1-39.3
		C318.3,425.9,318.2,427.1,302.7,447.4"/>
	<path class="st3" d="M309.3,448.5c-13.7,20.1-15.1,18.6-15.2,17.6c-0.6-5.7,24.5-38.4,28.7-39.6
		C322.9,426.9,323.2,428.2,309.3,448.5"/>
	<path class="st4" d="M317.9,448c-9.6,16.2-13.8,20-14.5,18.3c-2.1-4.8,20.6-37.9,25.4-39.7C329.6,427.9,322.3,440.5,317.9,448"/>
	<path class="st3" d="M442.8,306c-6.6,3-12.8,6.6-19.2,9.8c-1.4,0.7-1.5,0.6-1.6,0.6c0.3-0.4,1.4-1,3.2-1.9
		C430.5,311.8,437.5,308.4,442.8,306"/>
	<path class="st1" d="M419.1,317.5c-3.9,2-7.6,4.3-11.4,6.4c-0.7,0.4-1.9,1-2.2,1.1l0.2-0.2C409.7,322.6,415,319.7,419.1,317.5"/>
	<path class="st5" d="M397.8,329.4c-2.1,1.3-4.2,2.6-6.3,3.9c-1,0.6-2,1.2-2.9,1.8L397.8,329.4"/>
	<path class="st3" d="M378.6,341.5c-1.2,0.8-2.4,1.6-3.5,2.4c-0.9,0.6-1.8,1.2-2.7,1.8L378.6,341.5"/>
	<path class="st4" d="M361.5,353.5c-0.9,0.6-1.7,1.3-2.6,1.9c-1,0.7-2,1.5-3,2.2L361.5,353.5"/>
	<path class="st5" d="M345.8,365.5c-0.9,0.7-1.8,1.5-2.7,2.2c-4,3.3-4,3.3-4.8,3.9L345.8,365.5"/>
	<path class="st3" d="M330.3,378.5l0.1-0.1c-0.6,0.7-1.7,1.6-2.3,2.2c-2.8,2.5-5.7,5-8.4,7.6C322.9,385.3,327.1,381.4,330.3,378.5"
		/>
	<path class="st4" d="M299.5,408.4L299,409c3.7-3.9,8.7-9,12.5-12.8l2.6-2.5c1.1-1.1,1.3-1.2,1.5-1.3l0,0.1
		c-0.2,0.3-0.5,0.7-1.4,1.6C309.2,398.8,304.1,403.4,299.5,408.4"/>
	<path class="st5" d="M286,423.6c-3.1,3.4-4.9,5.5-5,5.7c3.5-4,8.1-9.5,11.6-13.5c8.1-9.2,10-9.9,10-10c0,0.2,0,0.3-0.8,1.2
		C296.8,412.8,291.1,418,286,423.6"/>
	<path class="st3" d="M275.4,437.4c-2.2,2.5-4.4,5.1-6.7,7.5c1.3-2.8,19.9-25.3,23.9-26.8l0.1,0.2c-0.1,0.2-0.3,0.5-0.4,0.7
		C287.1,425.6,281,431.3,275.4,437.4"/>
	<path class="st1" d="M267.1,450.6c-7.4,8.5-7.6,8.8-8.4,9.4c0.6-3.9,22.1-29,25.8-30.1c0,0.2-0.1,0.5-0.1,0.6
		C283.7,431.5,283.7,431.5,267.1,450.6"/>
	<path class="st5" d="M261.6,462.4c-7,8.4-9.1,10.7-10,11.2c-1-3.1,23.5-32.9,27.3-33.2c0,0.1,0,0.3,0,0.4
		C277.8,442.9,275,446.3,261.6,462.4"/>
	<path class="st3" d="M258.8,472.7c-8.4,10.6-10.5,12.8-11.3,13c-0.7-4.9,23.7-34.5,28.1-36l0.2,0.3
		C275.3,451,274.7,452.5,258.8,472.7"/>
	<path class="st4" d="M258.8,481.4c-9.7,13.1-11.8,14.7-12.5,14.5c-1.3-4.2,23.9-38.2,28.4-38.3l0.1,0.2
		C274.7,458.5,274.3,460.4,258.8,481.4"/>
	<path class="st5" d="M261.6,488.3c-10.9,15.8-12.6,16-13.2,16.1c-3.1-2.7,21.8-38.8,27.7-40.3l0.2,0.1
		C276.5,466.4,266.1,481.8,261.6,488.3"/>
	<path class="st3" d="M267.2,493.2c-8.1,12.8-13.3,19.2-14.1,17.1c-1.7-5,22.5-42.1,27-41.3C281.1,471,269.6,489.5,267.2,493.2"/>
	<path class="st4" d="M275.8,496c-9,16-13.9,20.5-14.5,18c-1.7-6.3,19.5-41.6,25.2-42C288.3,473.6,276.3,495.1,275.8,496"/>
	<path class="st5" d="M287.2,496.5c-7.9,16.2-13.9,22.3-14.8,18.7c-1.8-6.8,16.5-40.6,22.7-42C298,474.2,287.3,496.3,287.2,496.5"/>
	<path class="st2" d="M245.5,478.6l4.5-7.1c3-4.5,7-10.5,10.1-14.9c0.6-0.9,0.8-1.2,1.2-1.7c-0.1,0.3-0.1,0.3-0.7,1.1
		C248.8,473.2,248.8,473.2,245.5,478.6"/>
	<path class="st3" d="M236.3,495.2c-2.2,3.5-4.2,7.2-6.5,10.6c1.1-3.1,17.7-31.9,21.8-35.6c0,0.3-0.1,0.6-0.2,0.9
		C246.8,479.5,241.3,487.2,236.3,495.2"/>
	<path class="st4" d="M230.8,509.8c-5.7,9.4-7.3,12-8,12.4c-0.3-3.8,18.6-35.9,22.4-38.2l0.1,0.2c0,0.1-0.1,0.3-0.1,0.4
		C244.4,487.2,242,491.2,230.8,509.8"/>
	<path class="st2" d="M229,522.4c-8,13.9-8.9,14-9.4,14.1c-1.8-3,18.6-39.2,22.7-40.4c0,0.1,0.1,0.3,0.2,0.4
		C241.9,499.7,234.8,512.3,229,522.4"/>
	<path class="st3" d="M230.9,532.6c-8.8,16.2-10.2,15.8-10.6,15.7c-2.2-4.4,18.3-42.6,22.6-42.1l0.1,0.2
		C243.1,510,232.9,528.9,230.9,532.6"/>
	<path class="st1" d="M236.5,540.4c-6.5,12.9-11.2,19.5-12,16.7c-2-6.7,18-45.3,22.2-42.9C248,517.4,237,539.5,236.5,540.4"/>
	<path class="st2" d="M245.9,545.5c-6.3,13.9-11.9,21.6-13.1,17.8c-2.5-7.7,15.2-44.5,21-43.7C256.3,522.1,246,545.2,245.9,545.5"/>
	<path class="st3" d="M259,547.6c-5.9,15-12.4,23.6-14.2,18.8c-2.9-7.9,12.6-43.3,19.3-44C267.5,523.8,261.6,541.1,259,547.6"/>
	<path class="st4" d="M276,546.6c-5.7,17.5-12.7,24.9-15,19.7c-3.8-8.6,9.2-41.7,17.1-43.7C282.5,523.1,277.9,540.6,276,546.6"/>
	<path class="st5" d="M211.1,545.9c-0.9,2.1-2.2,5.2-3.3,8.2l2.5-6.2c3.7-8.3,8.4-19.5,12.3-27.8c0.8-1.6,1-2.2,1.3-2.6
		c-0.1,0.3-0.3,0.8-0.4,1.1C219.3,527.7,215,536.7,211.1,545.9"/>
	<path class="st3" d="M206.6,562.5c-4.3,10.2-5.2,12.3-5.9,13.3c-1.1-2.5,14-39.8,17.1-42c0.1,0.2,0.1,0.6,0,0.8
		C217.1,537.4,215.4,541.6,206.6,562.5"/>
	<path class="st4" d="M206.6,576.5c-6,14.9-7.1,15-7.5,15.1c-2.3-3.2,13.1-42.9,16.9-43.8c0.1,0.1,0.2,0.4,0.2,0.5
		C216,553,208.2,572.6,206.6,576.5"/>
	<path class="st5" d="M211.1,587.6c-4.6,12.1-8.1,18.4-9.2,16.4c-2.9-5.6,12.6-47,16.7-44.7l0.2,0.3
		C220,564,211.2,587.4,211.1,587.6"/>
	<path class="st3" d="M220.2,595.6c-4.6,13.3-9,20.6-10.8,17.8c-3.9-6.6,9.8-46.2,15.8-45.6c0.1,0,0.3,0.1,0.4,0.1
		C228,570.9,222.5,588.9,220.2,595.6"/>
	<path class="st4" d="M233.9,600c-4.3,14.2-9.8,22.8-12.4,19.1c-4.9-7.2,7.8-46.2,15-45.9C240.4,575.3,235.8,593.7,233.9,600"/>
	<path class="st5" d="M252.3,600.8c-4,16.3-11.2,25.9-14.5,19.5c-4.9-9.7,5.7-43.8,14-45.1C256.6,576.2,254.7,591.4,252.3,600.8"/>
	<path class="st4" d="M192.3,601.9l-0.2,0.9c2.7-9.1,6.1-21.4,9.1-30.4C201.1,572.6,196.3,586.6,192.3,601.9"/>
	<path class="st2" d="M189.7,619.8c-2.8,10.5-3.6,13-4.1,14.1c-1.3-2.4,9.4-44.4,11.4-44.9c0,0.2,0,0.6,0,0.8
		C196.8,591.8,196.4,594.6,189.7,619.8"/>
	<path class="st3" d="M192.3,634.4c-1.8,7.1-4.3,15.7-5.8,15.9c-3.1-3,6.7-45.3,10.7-46.2c0.2,0.1,0.3,0.4,0.4,0.6
		C198.5,610.4,192.4,634.2,192.3,634.4"/>
	<path class="st1" d="M200.3,645.5c-2.9,12.4-6,19.3-7.8,17.3c-4.2-4.9,5.5-48.6,10.4-46.7c0.1,0,0.2,0.2,0.3,0.3
		C205.5,620.4,201.9,638.8,200.3,645.5"/>
	<path class="st2" d="M213.7,652.7c-3,14.4-7.6,22.5-10.3,18.2c-5.3-8.5,3.6-48,10.4-46.5C217.4,627.1,215.6,643.2,213.7,652.7"/>
	<path class="st3" d="M232.5,655.8c-2.6,15.5-8.5,24.8-12.5,19.6c-7.1-9.2,0.5-46.3,9.6-46.6C234.4,630.3,234.2,645.5,232.5,655.8"
		/>
	<path class="st4" d="M256.6,654.4c-1.9,16.4-9.3,27.1-14.8,21.1c-8.3-9.1-1.9-44.2,8.5-46.4C257,629.4,257.7,644.8,256.6,654.4"/>
	<path class="st3" d="M183.5,642.2c-0.6,3.7-1,6.2-1.5,9.4L183.5,642.2"/>
	<path class="st4" d="M180.7,679.5c-1.6,12.8-2.1,14.1-2.3,14.8c-1.9-2.2,3.2-42.7,5-46.7l0.2-0.1c0.1,0.2,0.1,0.6,0.1,0.8
		C183.9,653.7,181.7,671.9,180.7,679.5"/>
	<path class="st5" d="M186.7,694.1c-1.3,11.3-3.1,17.7-4.4,16.4c-3.7-3.6,0.6-48,4.5-47.5c0.2,0,0.4,0.4,0.5,0.5
		C189.2,668.6,187.5,687.3,186.7,694.1"/>
	<path class="st3" d="M198.6,704.5c-1.4,13.4-4.4,21-7,17.5c-5.5-7.2-1.6-48.8,4.5-47.4c0.2,0,0.3,0.2,0.5,0.2
		C199.9,678.5,199.6,695,198.6,704.5"/>
	<path class="st4" d="M216.6,710.4c-1.1,14.5-5.5,23.3-9.6,19.2c-7.9-7.9-4.8-46.9,3.8-47.5c0.2,0,0.5,0,0.7,0.1
		C216.3,684.4,217.4,700.1,216.6,710.4"/>
	<path class="st5" d="M240.8,711.4c-0.7,16.6-7.4,26.7-13.3,20c-8.1-9-6.5-45.3,4.7-46.6C238.9,685.9,241.3,701,240.8,711.4"/>
	<path class="st2" d="M177.5,701.4c-0.3,9.3-0.3,15.5-0.3,18.8L177.5,701.4"/>
	<path class="st3" d="M180.5,741.1c0.1,12.9-0.4,14.7-0.6,15.3l-0.3,0.1c-1.8-3.7-3.4-42-1.3-47.8l0.3-0.1c0.1,0.2,0.2,0.6,0.3,0.8
		C180.3,716.4,180.5,740.9,180.5,741.1"/>
	<path class="st1" d="M190.4,754.8c0.1,12.1-1.3,19.1-3.4,16.6c-4.9-5.8-6.4-47.8-1.7-47.8c0.3,0,0.6,0.3,0.8,0.5
		C189,728.7,190.3,745.4,190.4,754.8"/>
	<path class="st2" d="M206.9,763.8c0.3,13.4-2.4,21.4-6.1,18.3c-7.8-6.4-9.8-45.6-2.5-47.7c0.4-0.1,0.9,0,1.2,0.1
		C204.2,737.6,206.7,753.5,206.9,763.8"/>
	<path class="st3" d="M230.2,767.5c0.7,15.3-4.2,24.8-10.2,19.5c-9.7-8.7-10.9-45.6-1.5-47c0.3,0,0.6,0,0.9,0
		C226,741.7,229.7,757.2,230.2,767.5"/>
	<path class="st4" d="M260,765.8c1.4,17.4-6.5,28.3-14.8,20.5c-10.7-10-12.4-43.5,0.6-46C254.2,740.6,259.2,755.4,260,765.8"/>
	<path class="st2" d="M376.1,370.1c-7.2,8.4-7.2,8.4-7.5,8.7c0.1-0.3,2.9-3.7,7.8-9.1L376.1,370.1"/>
	<path class="st3" d="M376.2,370.1c-5.8,8-5.8,8-6.2,8.3c0-0.3,2.2-3.4,6.4-8.7L376.2,370.1"/>
	<path class="st4" d="M376.3,370.1c-3.7,6.4-4.3,7.4-4.7,7.8c-0.1-0.2,1.5-3.1,4.9-8.1L376.3,370.1"/>
	<path class="st2" d="M376.3,370c-1.7,4.1-2.7,6.6-3.2,7.1l0,0c0.1-0.8,1.2-3.3,3.3-7.3L376.3,370"/>
	<path class="st3" d="M376.4,370c-0.4,2.3-1.1,5.7-1.6,6.2l0,0c-0.1-0.7,0.6-3.3,1.7-6.5L376.4,370"/>
	<path class="st1" d="M376.5,369.9c0.1,1.2,0.5,4.6,0.1,5.3l-0.1,0c-0.2-0.4-0.4-2.1,0-5.5L376.5,369.9"/>
	<path class="st2" d="M376.5,369.9c1.9,3.3,1.8,4,1.7,4.2c-0.3,0-1-0.9-1.8-4.4L376.5,369.9"/>
	<path class="st3" d="M376.6,369.8c2.8,1.9,3.4,2.8,3.3,3c-0.2,0-1-0.1-3.5-3.1L376.6,369.8"/>
	<path class="st4" d="M376.7,369.8c3.9,0.9,4.7,1.6,4.9,1.7l0,0.1c-0.8,0.2-4-1.3-5.1-1.8L376.7,369.8"/>
	<path class="st2" d="M376.7,369.7c5,0,6.2,0.4,6.3,0.5l0,0.1c-0.7,0.3-4.3-0.2-6.6-0.5L376.7,369.7"/>
	<path class="st3" d="M376.8,369.7c4.6-0.8,7-1,7.7-0.9l0,0c-0.7,0.3-3.6,0.5-8.1,0.9L376.8,369.7"/>
	<path class="st4" d="M376.8,369.6c5.9-1.7,8.7-2.2,8.9-2.1c-0.5,0.3-1,0.4-9.3,2.2C376.6,369.7,376.7,369.7,376.8,369.6"/>
	<path class="st2" d="M376.9,369.6c6.4-2.4,9.6-3.4,9.9-3.3c-0.4,0.2-0.4,0.2-10.3,3.5C376.6,369.7,376.7,369.6,376.9,369.6"/>
	<path class="st3" d="M376.9,369.5c6.9-3.2,10.3-4.5,10.6-4.5c-0.3,0.2-0.3,0.2-11.1,4.7C376.6,369.7,376.8,369.6,376.9,369.5"/>
	<path class="st1" d="M376.9,369.5c7.1-3.8,10.8-5.4,11.1-5.5c-0.2,0.1-0.2,0.1-11.6,5.7C376.6,369.7,376.8,369.6,376.9,369.5"/>
	<path class="st2" d="M376.9,369.4c7.2-4.3,11-6.3,11.4-6.4c-0.1,0.1-0.1,0.1-11.9,6.7C376.6,369.7,376.8,369.5,376.9,369.4"/>
	<path class="st3" d="M376.9,369.4c7.1-4.7,11-7,11.5-7.1c-0.1,0-0.1,0-12,7.5C376.6,369.6,376.8,369.5,376.9,369.4"/>
	<path class="st4" d="M376.9,369.4c6.9-5,10.8-7.5,11.3-7.7c-0.1,0.1-0.2,0.2-1.7,1.2c-3.4,2.3-6.7,4.6-10.1,6.9
		C376.6,369.6,376.8,369.5,376.9,369.4"/>
	<path class="st3" d="M349.4,403.4c-5.9,8.2-12.5,17.4-13.8,17c-0.7-4.3,24.7-34.2,27.9-36.3c-0.2,0.5-0.2,0.5-2.8,3.9
		C356.6,393.4,354,397,349.4,403.4"/>
	<path class="st1" d="M354.2,402.1c-5.2,8.6-10.4,16.9-11.9,16.8c-1.7-3.4,20.2-33.1,23.2-35.3c-0.1,0.4-0.1,0.4-2.2,3.7
		C360.1,392.5,358.6,394.9,354.2,402.1"/>
	<path class="st5" d="M359.5,400.2c-2.5,5.2-7.8,16.2-9.8,16.3c-2.4-2.4,14.8-31,18-33.6C367.8,383.1,367.8,383.1,359.5,400.2"/>
	<path class="st3" d="M365.2,397.7c-6.3,18.8-7.8,15.2-7.8,15.1c-1.6-4.3,10.3-28.7,12.8-30.9C370.3,382.2,370.3,382.4,365.2,397.7"
		/>
	<path class="st4" d="M371,394.7c-2.3,14.6-4.9,14.9-5.4,14.2c-2.6-3.4,5-26,7.1-28.2C373.1,381.2,371.1,394.5,371,394.7"/>
	<path class="st5" d="M377,391.2c0.8,11-1.6,13.9-2.9,13c-3.7-2.6-0.3-23.2,1.2-25C376,379.6,377,391.1,377,391.2"/>
	<path class="st3" d="M383.1,387.3c3.3,8.4,1.6,12.3-0.4,11.6c-4.5-1.6-6-19.7-4.7-21.3C378.7,377.4,382.2,384.9,383.1,387.3"/>
	<path class="st4" d="M389,383c5.6,6.5,4.8,10.4,2.3,10c-1-0.1-3.2-1.1-6.2-5.9c-1.7-2.8-5.1-10.6-4.5-11.4
		C381.4,375.5,386.7,380.3,389,383"/>
	<path class="st5" d="M394.8,378.5c7.5,4.3,7.7,7.8,5.4,8.2c-0.8,0.2-3.3,0.1-8-3.4c-2.7-2-9.4-8.7-9-9.4
		C384.1,373.5,390.9,376.2,394.8,378.5"/>
	<path class="st2" d="M327.7,446c-8.6,17.4-12.8,20.5-13.4,18.3c-1.7-5.9,16.4-36.4,21.5-38.8l0.2,0
		C336.8,427.3,328,445.2,327.7,446"/>
	<path class="st3" d="M338.6,442.5c-6.2,16.1-10.7,20.5-11.9,18.5c-3-5,11.7-34.8,17-37.7l0.3,0
		C345.3,424.7,338.6,442.3,338.6,442.5"/>
	<path class="st4" d="M350.3,437.7c-4,15.3-8.8,20.8-10.4,17.9c-3.2-5.8,8-32.8,12.3-35.5C354.9,419.6,350.3,437.5,350.3,437.7"/>
	<path class="st2" d="M362.6,431.8c-1.6,14.2-6.2,19.9-8.5,17.5c-4.2-4.4,2.2-29.9,7.1-33.3C364.3,415.1,362.6,431.6,362.6,431.8"/>
	<path class="st3" d="M375.3,424.8c0.8,13.2-3.7,19.5-6.9,16.4c-5.1-5-1.7-27.2,2.2-30.2C373.7,409.9,375.1,421.8,375.3,424.8"/>
	<path class="st1" d="M388.2,416.8c3.3,11.3-0.6,18-4.7,15.6c-6-3.6-7.4-23.7-3.2-27.1C383.4,403.9,387.2,413.3,388.2,416.8"/>
	<path class="st2" d="M401.1,408.1c5.5,9.2,2.9,15.6-1.7,14.8c-7.5-1.3-13.5-20.2-9.5-23.9C393,397.4,398.8,404.2,401.1,408.1"/>
	<path class="st3" d="M413.7,398.6c7.5,7.2,6,13.6,0.8,13.5c-8.1-0.3-18.6-16.5-15.1-20C402.3,390.4,409.7,394.8,413.7,398.6"/>
	<path class="st4" d="M425.8,388.6c8.1,4.6,9.4,10.1,5.1,11.6c-1.6,0.6-6.1,1.3-14.1-4.1c-3.8-2.6-10-8.7-8.5-11l0.3-0.3
		C411.6,382.9,420.8,385.8,425.8,388.6"/>
	<path class="st3" d="M400.2,373.8c8.2,2.2,10.5,5.1,8.4,6.1c-4.5,2.3-22.2-6.5-23.1-8.1l0-0.1C386.5,371.4,394.7,372.4,400.2,373.8
		"/>
	<path class="st1" d="M405.4,368.9c9.3,0.5,12.6,2.5,11.4,3.7c-3.1,3.1-27.6-2-28.8-2.9l0-0.1C388.8,369.2,398.3,368.5,405.4,368.9"
		/>
	<path class="st5" d="M409.9,364.1c10.5-0.9,14.8,0.2,13.8,1.4c-2.4,2.8-31.9,2.5-33.6,2.1l0-0.1C390.9,367,401.4,364.8,409.9,364.1
		"/>
	<path class="st3" d="M413.5,359.5c8.7-1.7,15.4-2.2,16-1c-1.1,2.8-37.4,7-37.7,7l0-0.1C393.5,364.6,404.5,361.3,413.5,359.5"/>
	<path class="st4" d="M416.4,355.3c9.2-2.7,16.7-3.9,17.7-3.1c-0.5,2.4-40.6,11.5-40.9,11.3C394.8,362.6,406.2,358.3,416.4,355.3"/>
	<path class="st5" d="M418.4,351.5c9.4-3.4,17.6-5.6,19-5c-1.2,2.4-42.9,15.3-43.2,15.2C395.9,360.8,407.8,355.4,418.4,351.5"/>
	<path class="st3" d="M419.5,348.2c9.6-4.1,18.1-7,19.9-6.7c-0.6,2-44.2,18.8-44.6,18.8C396.3,359.3,408.1,353.1,419.5,348.2"/>
	<path class="st4" d="M419.8,345.3c10.9-5.4,18.7-8.2,20.4-8.2l0,0.3c-2.7,2.2-45,21.5-45.2,21.5C396.5,357.8,408.3,351,419.8,345.3
		"/>
	<path class="st5" d="M419.3,343c10.7-5.9,18.6-9.3,20.6-9.5l0.1,0.3c-2.4,2.1-44.7,24.1-45,24.1C396.4,356.7,407.8,349.2,419.3,343
		"/>
	<path class="st2" d="M437,378.5c9.2,2.9,11.8,7.3,8.4,9.5c-7.5,4.7-29-6.1-28.6-10c0-0.2,0.2-0.5,0.4-0.7
		C419.9,375.4,430.3,376.4,437,378.5"/>
	<path class="st3" d="M447.4,368c10.4,1.4,14.4,5,11.1,7.3c-7.6,5.2-34.5-2.6-33.4-5.6l0.2-0.3C428,367.3,439.6,366.9,447.4,368"/>
	<path class="st4" d="M456.1,358c10.7,0,16,2.4,14.2,4.6c-1.3,1.5-6.3,3.1-16.8,3c-7.7-0.1-21.6-1.6-21.3-3.5l0.1-0.3
		C434.7,359.7,447.4,358,456.1,358"/>
	<path class="st2" d="M463,348.6c11.6-1.1,17.8,0.3,16.4,2.4c-2.5,3.6-39.8,7-41.5,3.8l0.1-0.3C440,352.7,452.7,349.7,463,348.6"/>
	<path class="st3" d="M468.2,340.1c12-2.2,19.2-1.6,18.2,0.3c-1.7,3.2-41.3,10.2-44.1,7.8l0-0.2C444.1,346.1,457.4,342,468.2,340.1"
		/>
	<path class="st1" d="M471.5,332.4c12.4-3.1,20.3-3.4,19.7-1.7c-1,2.8-42.1,13-45.8,11.4l0-0.2C446.8,340.2,460.5,335.2,471.5,332.4
		"/>
	<path class="st2" d="M473.1,325.7c12.5-3.9,21-5,20.8-3.5c-0.4,3-43.9,15.1-46.8,14.5l-0.1-0.1C448,335.2,461.1,329.5,473.1,325.7"
		/>
	<path class="st3" d="M472.8,320.2c11.2-4.1,20.7-6.4,21.6-5.1c-1.3,3.8-46.7,17.4-47,17.1C449.2,330,462.7,323.9,472.8,320.2"/>
	<path class="st4" d="M470.6,315.8c10.7-4.5,20.6-7.4,22-6.5c-0.2,3.1-45.9,19.5-46.4,19.3C447.5,326.8,459.8,320.4,470.6,315.8"/>
	<path class="st3" d="M301,494.6c-6.6,16.2-12.6,22.9-14.4,19.7c-3.5-6.1,12-39.5,19.4-42C309.8,472.6,301.1,494.4,301,494.6"/>
	<path class="st1" d="M316.7,490.5c-5,16.2-11.5,24-13.8,19.9c-3.9-7.3,9.2-37.9,15.8-40.8C322.5,469.2,318.4,484.9,316.7,490.5"/>
	<path class="st5" d="M333.8,484.3c-3.3,16.1-10.2,24.8-13,19.7c-4.3-7.7,5.3-35.5,11.9-39C337,464,334.9,479,333.8,484.3"/>
	<path class="st3" d="M351.9,476.2c-1.3,15.2-7.8,24.2-11.6,19.9c-5.7-6.4,0.9-33.5,7.4-37.4C352.1,457.3,352.5,469.9,351.9,476.2"
		/>
	<path class="st4" d="M370.8,466.4c0.9,14.9-5.7,24.3-10.7,19.2c-6.4-6.6-3.1-30.4,3.2-34.7C368.2,449.1,370.5,460.6,370.8,466.4"/>
	<path class="st5" d="M390.2,455.2c3.2,13.5-2.8,23.1-8.9,19c-7.3-4.9-8.5-27.2-1.7-32.2C384.6,439.6,389,450.1,390.2,455.2"/>
	<path class="st3" d="M409.6,442.6c5.4,11.9,0.3,21.7-7,18.5c-8.7-3.8-13.3-24.1-6.8-29.4C400.7,429.2,407,436.7,409.6,442.6"/>
	<path class="st4" d="M428.9,428.9c7.3,9.8,4,19.1-3.7,18.1c-10.1-1.4-19.6-20.6-13-26.4C416.9,417.8,424.9,423.6,428.9,428.9"/>
	<path class="st5" d="M447.6,414.2c8.9,7.7,7.4,16.3-0.1,17c-11.7,1.1-24.8-16.3-19.9-22.1c0.1-0.2,0.4-0.4,0.5-0.5
		C432.9,405.4,442.5,409.8,447.6,414.2"/>
	<path class="st2" d="M295.4,542.6c-4.2,17.1-11.5,25.5-14.8,21c-5.4-7.3,5.1-40.3,13.9-43.6C299.8,519.7,296.8,536.6,295.4,542.6"
		/>
	<path class="st3" d="M317,535.7c-2.7,17.4-10.6,26.8-14.8,21.3c-5.9-7.7,1.9-38.1,10.8-42.2C318.4,513.8,318.3,527.1,317,535.7"/>
	<path class="st4" d="M340.3,526.3c-0.9,17.5-9.5,27.6-14.6,21.3c-6.5-8-1.4-35.5,7.5-40.3C339.4,505.5,340.6,519.3,340.3,526.3"/>
	<path class="st2" d="M364.7,514.5c1.1,16.4-7.2,27.2-13.5,21.9c-8-6.8-5.8-33.2,3.3-38.8C361.2,495.1,364.3,507.9,364.7,514.5"/>
	<path class="st3" d="M390,500.6c3.2,15.4-4.6,26.5-12.1,22.1c-9.5-5.5-10.3-30.6-1.2-36.8C383.1,483,388.3,492.7,390,500.6"/>
	<path class="st1" d="M415.6,484.8c5.3,14-1.9,25.5-10.4,22.1c-10.8-4.2-14.8-27.7-5.8-34.4C406,469.1,412.8,477.6,415.6,484.8"/>
	<path class="st2" d="M441.1,467.5c7.5,12.7,1.1,24.2-8.5,21.8c-11.7-2.9-19.1-24.8-10.6-31.7C428.8,453.7,437.4,461.2,441.1,467.5"
		/>
	<path class="st3" d="M466.1,448.7c9.4,10.9,4.2,22.6-6.3,21.3c-12.8-1.6-23.5-21.4-15.4-28.6C451.2,437.1,461.4,443.2,466.1,448.7"
		/>
	<path class="st4" d="M490.2,428.9c10.8,8.9,7.8,19.8-2.4,20.5c-14.5,1-28.6-17.2-22.4-24.5c0.2-0.2,0.5-0.5,0.7-0.7
		C472.8,419.5,484.4,424.2,490.2,428.9"/>
	<path class="st3" d="M464.9,399.3c10,5.8,10.3,13.4,3.5,15.4c-10.9,3.2-29.2-10.9-26.3-17.4c0.2-0.4,0.6-0.8,0.9-1.1
		C447.7,392.7,458.9,395.8,464.9,399.3"/>
	<path class="st1" d="M481.6,383.3c11,4,13,10.4,7.3,13.3c-10.3,5.2-34.3-6.1-32.2-12.6c0.1-0.4,0.5-0.8,0.7-1.1
		C462,379.2,474.6,380.8,481.6,383.3"/>
	<path class="st5" d="M496,367.8c11.6,2.4,15.2,7.4,11.3,10.4c-8.9,6.8-38.3-1.7-37.5-7.6c0-0.3,0.3-0.8,0.5-1
		C474.5,365.9,488.2,366.2,496,367.8"/>
	<path class="st3" d="M507.8,353.2c12.6,1.1,17.5,5.1,14,8.1c-7.4,6.2-40.6,1.5-41-3.4c0-0.3,0.2-0.7,0.3-0.9
		C484.4,353.8,497.9,352.4,507.8,353.2"/>
	<path class="st4" d="M517,339.7c13.1-0.1,19.4,3,16.4,5.9c-5.6,5.3-44.5,5.4-43.8,0.1c0-0.1,0.1-0.3,0.2-0.4
		C492.4,342.2,506.4,339.8,517,339.7"/>
	<path class="st5" d="M523.4,327.4c13.6-1.2,21,1,18.4,3.8c-4.7,5-45.5,8.3-46,3.7l0.1-0.4C498.2,331.7,512.5,328.3,523.4,327.4"/>
	<path class="st3" d="M527.2,316.6c14-2.1,22.2-0.8,20.1,1.7c-4.4,5.6-46.4,9.3-47.4,7l0-0.3C501.6,322.3,515.9,318.2,527.2,316.6"
		/>
	<path class="st4" d="M528.1,307.3c13.8-2.8,22.9-2.4,21.5-0.2c-2.4,3.9-46.8,12.7-48.1,9.5C502.5,314.5,515.7,309.9,528.1,307.3"/>
	<path class="st5" d="M526.3,299.8c13.6-3.5,23.4-3.9,22.6-1.9c-1.3,3.3-45.6,14.3-48,11.9C501.3,307.9,514,302.9,526.3,299.8"/>
	<path class="st2" d="M512.3,408.8c11.9,7,11,16.8,1.6,19.1c-13.9,3.4-32.9-11.7-28.9-19.7c0.3-0.5,0.8-1.1,1.2-1.6
		C492.4,401.8,505.3,404.8,512.3,408.8"/>
	<path class="st3" d="M532.9,387.9c12.8,5.1,14,13.5,6.1,16.8c-13.7,5.7-37.8-6.9-34.6-15.2c0.2-0.5,0.7-1.1,1-1.5
		C511.1,383.1,525,384.8,532.9,387.9"/>
	<path class="st4" d="M550.1,368.1c13.1,3.5,16.5,10.3,10.6,13.9c-11.5,7-41.2-3-39.6-10.6c0.1-0.5,0.5-1,0.7-1.4
		C526.8,365.2,541.5,365.8,550.1,368.1"/>
	<path class="st2" d="M563.9,349.6c14.1,2.2,18.8,8.1,13.5,11.7c-9.9,6.6-45.3,0.4-42.6-7.4c0.1-0.2,0.2-0.4,0.3-0.6
		C539.4,348.5,554.6,348.1,563.9,349.6"/>
	<path class="st3" d="M574.1,332.6c12.5,0.9,20.4,5,16.8,8.7c-6.3,6.6-46.9,3.8-45.8-3.2c0-0.2,0.2-0.4,0.2-0.6
		C548.8,333.3,564.6,331.9,574.1,332.6"/>
	<path class="st1" d="M580.8,317.4c13,0,21.8,3.1,19,6.6c-4.9,6.1-47.1,6.1-47.4,0c0-0.2,0.1-0.4,0.1-0.5
		C554.8,319.8,569.3,317.3,580.8,317.4"/>
	<path class="st2" d="M583.8,304.1c13.2-0.7,22.9,1.4,20.9,4.5c-3.5,5.5-46.5,8-48.3,2.9c0-0.1,0-0.3,0-0.4
		C557.9,307.9,572.1,304.8,583.8,304.1"/>
	<path class="st3" d="M583.2,293.1c15-1.6,24.7,0.3,22.2,3c-4.4,4.7-46.4,8.5-48.3,4.5C557.7,297.8,571.4,294.3,583.2,293.1"/>
	<path class="st4" d="M578.9,284.4c14.7-2.2,25.3-1.2,23.6,1c-2.7,3.7-44.9,9.4-48,6.6C554.1,289.8,567.3,286.1,578.9,284.4"/>
	<path class="st3" d="M274.6,597.8c-3.4,18.5-11.7,27.2-15.8,20.5c-5.8-9.8,2.9-41.9,12.1-44.6C276.8,573.7,276.3,588.4,274.6,597.8
		"/>
	<path class="st1" d="M299.8,591.1c-1.9,18.4-10.6,28-15.9,22.2c-7.5-8.4-0.9-40.4,9.2-44.5C299.8,567.8,300.8,581.9,299.8,591.1"/>
	<path class="st5" d="M327.3,581.1c-0.4,18.6-10.1,29.3-16.4,22.7c-8.2-8.7-3.6-38,6.7-43C324.6,558.9,327.5,571.6,327.3,581.1"/>
	<path class="st3" d="M356.5,568.1c1.4,18-8.2,29.5-15.8,23.8c-9.7-7.3-7.7-36,3-42C351.4,547.2,355.8,558.9,356.5,568.1"/>
	<path class="st4" d="M387,552.4c3.5,17.8-7.1,30.2-16,23.8c-10.4-7.5-10.2-33.2,0.3-39.8C379.3,533,385.3,543.7,387,552.4"/>
	<path class="st5" d="M418.1,534.3c5.5,16.7-4.6,29.7-14.8,24.4c-11.9-6.2-14.3-30.7-3.7-38.1C407.9,516.5,415.4,526.1,418.1,534.3"
		/>
	<path class="st3" d="M449.4,514c7.6,15.6-1.8,28.9-13.3,24.7c-12.1-4.5-19.1-27.4-7.9-36C436.7,498,445.7,506.5,449.4,514"/>
	<path class="st4" d="M480.4,491.9c9,13.1,1.6,26.5-9.9,25c-13.6-1.8-25.2-24.3-13.8-33.8C465.3,477.9,475.7,485.1,480.4,491.9"/>
	<path class="st5" d="M510.5,468.3c10.1,10.9,5.7,25.2-7.6,24.6c-16.2-0.7-27.2-21.6-19.3-30c0.3-0.3,0.7-0.6,1-0.9
		C493,456.3,505,462.4,510.5,468.3"/>
	<path class="st2" d="M284.3,648.7c-0.9,17.5-9.4,29.2-16.3,22.3c-9.4-9.4-4.4-42,6.9-45.8C282.3,624.4,284.8,638.4,284.3,648.7"/>
	<path class="st3" d="M315.1,638.9c0.4,17.9-9.5,30.9-17.5,23.3c-9.8-9.2-6.2-39.8,5.2-44.8C311,615.5,314.9,628.8,315.1,638.9"/>
	<path class="st4" d="M348.3,625.4c1.9,18.5-9.1,32.6-18.6,24c-9.6-8.6-9.1-36.9,3.4-43.3C341.9,603.2,347.3,615.6,348.3,625.4"/>
	<path class="st2" d="M383.2,608.5c3.8,19.2-8.1,32.3-18.3,25.4c-11-7.4-12.7-34.9,0.2-42.5C374.5,587.7,381.4,599.2,383.2,608.5"/>
	<path class="st3" d="M419.2,588.7c5.1,16.7-5.4,32.5-17.5,26.5c-12.3-6.1-16.4-32.7-3.3-41.3C408.2,569.3,416.5,579.8,419.2,588.7"
		/>
	<path class="st1" d="M455.7,566.3c6.8,15.8-2.9,32.1-16.4,27.2c-13.5-4.9-20.1-30.2-7-39.7C442.4,548.5,452.1,557.9,455.7,566.3"/>
	<path class="st2" d="M492.1,541.5c8.6,14.7-0.3,31.3-14.8,27.7c-14.6-3.6-23.7-27.5-10.8-37.7C476.6,525.4,487.5,533.7,492.1,541.5
		"/>
	<path class="st3" d="M527.8,514.8c10.3,13.6,2.6,30.2-12.9,27.8c-15.5-2.4-27.2-24.7-14.8-35.5
		C510.1,500.6,522.3,507.7,527.8,514.8"/>
	<path class="st4" d="M562.1,486.5c11.4,11.6,6.4,27.5-8.8,27.8c-17,0.3-31.7-21.1-21.8-31.9c0.3-0.3,0.8-0.8,1.1-1.1
		C542.5,474.2,555.8,480.1,562.1,486.5"/>
	<path class="st3" d="M538.4,444.3c12,9.7,8.2,22.4-3.5,23.9c-17,2.2-32.8-17.9-25.2-26.8c0.3-0.3,0.6-0.7,0.9-0.9
		C518.7,434.3,532,439.1,538.4,444.3"/>
	<path class="st1" d="M565.2,418.6c13,7.8,11.5,19.3,0.9,22.4c-16.5,4.9-37-11.8-31.8-21.9c0.3-0.7,1-1.4,1.5-2
		C543.6,410.7,558,414.2,565.2,418.6"/>
	<path class="st5" d="M588.5,393.6c14.3,6.4,14.7,16.8,4.6,20.3c-16,5.4-39.3-8.7-35.7-18.1c0.2-0.6,0.8-1.3,1.2-1.9
		C565.3,387.6,580.4,390,588.5,393.6"/>
	<path class="st3" d="M607.5,370.1c13.3,4.3,18.1,13.1,9.5,17.4c-14.1,6.9-42.5-4.9-40.4-13.9c0.1-0.6,0.5-1.2,0.9-1.7
		C583.2,365.9,598.8,367.3,607.5,370.1"/>
	<path class="st4" d="M622.3,348.3c13.1,3,19.8,10,13.7,14.4c-11.1,7.9-44.6-1.7-44.2-9.8c0-0.5,0.3-1.1,0.5-1.6
		C596.9,345.9,612.6,346.1,622.3,348.3"/>
	<path class="st5" d="M632.6,328.6c13.7,2.1,21.7,8,16.5,12.1c-9,7.1-47.3,0.9-46-7.4c0-0.2,0.2-0.5,0.2-0.7
		C606.8,327.6,622.6,327,632.6,328.6"/>
	<path class="st3" d="M638.6,311.1c14,1.3,23.3,6.1,19,9.8c-6.9,6.1-46.8,2.3-47.4-4.6c0-0.2,0-0.4,0.1-0.6
		C612.7,311.3,628.3,310.2,638.6,311.1"/>
	<path class="st4" d="M640.2,296.2c13.9,0.5,24.4,4.3,21.2,7.6c-5.7,5.8-47.1,3.6-48.2-2.6C614.3,297.7,628.3,295.7,640.2,296.2"/>
	<path class="st5" d="M637.2,284.1c13.8,0,25.3,2.7,23.2,5.4c-3.5,4.6-45.5,4.3-48.3-0.4C612,286.2,625.3,284.1,637.2,284.1"/>
	<path class="st2" d="M593.6,457.9c12.9,10.4,9.3,26-6.3,27.3c-17.4,1.5-34.7-18.1-25.7-29.1c0.3-0.4,0.7-0.8,1.1-1.1
		C572.1,447.5,586.7,452.3,593.6,457.9"/>
	<path class="st3" d="M623,428.1c13.4,8.5,12.9,22.4-1,25.6c-19.4,4.5-39.1-14.9-31.4-25.6c0.3-0.4,0.7-0.8,0.9-1.1
		C600.1,419.4,615.1,423.1,623,428.1"/>
	<path class="st4" d="M647.7,399.8c13.6,6.8,16,18.7,4.7,22.8c-16.9,6.1-41.3-9.8-37.4-20.5c0.3-0.7,0.8-1.5,1.3-2.2
		C623.5,392.8,639.3,395.6,647.7,399.8"/>
	<path class="st2" d="M667.3,373.4c14.5,5.7,18.9,16.4,8.3,20.5c-14.7,5.7-44.5-8-39.8-18.3c0.1-0.3,0.4-0.7,0.6-1
		C642.3,367.8,658.3,369.9,667.3,373.4"/>
	<path class="st3" d="M681.9,349.1c14.4,4.4,20.9,13.1,13,17.6c-12.3,6.9-46.5-4.5-43.6-14.6c0.1-0.3,0.3-0.6,0.4-0.9
		C656.4,344.9,672.5,346.3,681.9,349.1"/>
	<path class="st1" d="M691.4,327.4c14.6,3.5,22.7,11.1,16.1,15.2c-10.1,6.1-46.1-3.2-45.3-11.8c0-0.2,0.1-0.6,0.2-0.8
		C665.7,324.3,681.6,325.1,691.4,327.4"/>
	<path class="st2" d="M695.7,308.5c14.9,2.7,24.5,9.2,18.9,12.8c-7.6,4.9-46.6-1.4-46.4-9.9C670.1,306.6,685.4,306.7,695.7,308.5"/>
	<path class="st3" d="M694.8,292.8c15,2.1,25.9,7.3,21.5,10.4c-5.9,4.2-44.9-0.5-47.2-7.6C669.7,291.5,684.4,291.3,694.8,292.8"/>
	<path class="st4" d="M688.6,280.5c14.6,1.5,26.9,5.6,23.9,8c-3.7,3-42.8-0.3-47.3-5.6C664.4,279.9,676.9,279.3,688.6,280.5"/>
	<path class="st3" d="M270.1,707.5c0.2,17.8-8.2,29.1-15.9,21.7c-9.7-9.3-8.8-42.8,4.1-46.3C266.3,682.5,270,697,270.1,707.5"/>
	<path class="st1" d="M303.3,698.7c1.2,18.6-8.6,31.3-17.9,23.1c-10.5-9.3-10.3-40.5,3.2-45.6C297.5,674.6,302.6,688.4,303.3,698.7"
		/>
	<path class="st5" d="M339.4,685.6c2.5,19-9.1,33.2-19.8,24.3c-10.9-9.1-11.4-38.2,2.2-44.6C331.7,662.4,338,675.4,339.4,685.6"/>
	<path class="st3" d="M377.8,668.5c3.9,18.5-7.9,33.9-20,26.2c-12.3-7.8-14.6-36.5-0.3-44.3C368.1,646.5,375.7,658.6,377.8,668.5"/>
	<path class="st4" d="M417.8,647.8c5.3,17.9-6.2,34.3-19.7,27.8c-13.6-6.5-17.8-34.6-3.2-43.6C406,627.1,415,638.3,417.8,647.8"/>
	<path class="st5" d="M458.8,624c7.3,18.2-5.5,35.7-20.7,28.3c-13.9-6.8-18.9-32-4.6-41.8C444.9,604.7,455.1,614.9,458.8,624"/>
	<path class="st3" d="M499.9,597.3c8.7,16.9-3.6,35.3-19.6,29.3c-15-5.6-22-29.9-7.8-40.5C484.1,579.6,495.5,588.8,499.9,597.3"/>
	<path class="st4" d="M540.6,568.3c10,15.3,0.4,33.3-16.2,30.5c-16.6-2.8-27.5-27.6-13.1-39.3C522.8,552.2,535.4,560.3,540.6,568.3"
		/>
	<path class="st5" d="M580.2,537.3c11.2,14,2.8,32.3-14.2,30.8c-17.2-1.6-30.5-24.9-16.7-37.3C560.6,522.9,574.2,529.9,580.2,537.3"
		/>
	<path class="st2" d="M294.3,758.7c2.3,18.6-7.4,30.9-17.6,22.3c-11.7-9.8-13.5-41.1,0.5-45.6C286.8,734.2,293,748.3,294.3,758.7"/>
	<path class="st3" d="M332.5,746.6c3.3,18.5-7,32.2-18.7,24.9c-13.3-8.3-16.5-39.5-1.1-46C323.2,722.9,330.6,736.3,332.5,746.6"/>
	<path class="st4" d="M373.5,729.9c4.6,19.2-7.5,34.4-20.9,26.3c-13.5-8.2-16.7-37.5-1.6-45.1C362.5,707.3,371.1,719.8,373.5,729.9"
		/>
	<path class="st2" d="M416.7,709.1c5.7,18.3-6.8,35-21.1,28.3c-15.1-7.1-20-35.5-3.8-44.9C403.9,687.6,413.6,699.2,416.7,709.1"/>
	<path class="st3" d="M461.2,684.6c7.3,18.9-6.7,36.9-22.7,29.3c-15-7.1-20-33.5-4.4-43.5C446.6,664.3,457.5,675,461.2,684.6"/>
	<path class="st1" d="M506.3,656.8c8.7,18.2-4.9,37.1-22.1,30.8c-16-5.9-22.7-31.7-7-42.8C490,637.8,501.9,647.6,506.3,656.8"/>
	<path class="st2" d="M551.3,626.2c10.1,17.4-2.8,37.1-20.9,31.9c-16.8-4.8-25.3-29.7-9.9-41.7C533.4,608.6,546.3,617.4,551.3,626.2
		"/>
	<path class="st3" d="M595.5,593.1c11.5,16.5-0.5,36.7-19.4,32.7c-17.5-3.7-27.8-27.6-12.8-40.4C575.9,577,589.7,584.9,595.5,593.1"
		/>
	<path class="st4" d="M638,558.2c12.1,14.6,3.2,34.3-15.1,33.4c-19-0.9-33.3-24.8-18.1-39C617,543.5,631.5,550.4,638,558.2"/>
	<path class="st3" d="M616.8,505.7c12.7,12.9,5.6,31.3-11.9,30.7c-17.7-0.5-33.2-22.3-20.2-35.1
		C595.6,492.9,610.1,498.8,616.8,505.7"/>
	<path class="st1" d="M652.1,472c13.3,11,9.3,28.3-7,30.2c-19.3,2.3-37.2-18.4-27.1-31.2c0.3-0.4,0.8-0.9,1.2-1.3
		C629.4,460.9,644.6,465.8,652.1,472"/>
	<path class="st5" d="M682.7,439.1c14.7,10,13.1,25.9-2.9,28.3c-18.7,2.8-39-15.9-30.7-28.2c0.3-0.4,0.7-0.9,1-1.2
		C658.9,429.5,674.5,433.6,682.7,439.1"/>
	<path class="st3" d="M707.7,408.2c14.7,8.2,16.4,22.2,3.1,25.7c-17.3,4.6-42.4-12.8-35.8-24.8c0.2-0.4,0.5-0.8,0.8-1.2
		C683.2,399.9,698.9,403.3,707.7,408.2"/>
	<path class="st4" d="M727.1,379.6c14.7,6.9,19.1,18.6,8.6,22.8c-15.2,6.1-44.8-9.7-40.1-21.4c0.1-0.3,0.4-0.8,0.6-1.1
		C702,372.6,718.1,375.4,727.1,379.6"/>
	<path class="st5" d="M740.7,353.6c15,5.9,21.3,16.6,12.1,20.4c-12.5,5.2-46.1-8-41.8-19.7C715.5,347.7,731.4,350,740.7,353.6"/>
	<path class="st3" d="M748.6,330.7c15.4,5.1,23.5,14.5,15.5,17.9c-10.8,4.6-45.3-6.8-43.6-17.1C723.4,325.5,739,327.5,748.6,330.7"
		/>
	<path class="st4" d="M750.6,311.1c14.5,4.1,24.4,11.6,19.6,14.9c-7,4.7-44.7-4.8-45.7-14.3C725.7,307.1,739,307.8,750.6,311.1"/>
	<path class="st5" d="M746.7,295.2c14.5,3.6,25.8,9.8,22.4,12.4c-4.7,3.6-42.6-5-46.2-12.3C722.6,291.3,736.5,292.6,746.7,295.2"/>
	<path class="st2" d="M676.9,522.7c13.3,13.7,5.9,33.4-12.7,33.5c-19.2,0.1-35.4-22.5-21.2-37.1
		C654.7,509.6,669.9,515.5,676.9,522.7"/>
	<path class="st3" d="M713.3,485.9c14.4,12.5,9,31.7-9.2,32.6c-19.1,0.9-37.2-20.1-24.6-34.9C690.1,474,705.6,479.2,713.3,485.9"/>
	<path class="st4" d="M743.8,450.8c14.7,10.9,13.2,27.8-2.6,30.3c-18.8,2.9-39.5-17.4-31.2-30.6c0.3-0.4,0.7-0.9,1-1.3
		C719.9,440.2,735.5,444.7,743.8,450.8"/>
	<path class="st2" d="M768.1,418.2c14.7,9.4,16.6,24.1,3.5,27.6c-17.1,4.5-42.2-14.8-35.8-27.6c0.2-0.4,0.5-0.9,0.8-1.2
		C743.7,408.5,759.3,412.6,768.1,418.2"/>
	<path class="st3" d="M786.1,388.2c15.1,8.4,19.1,22.1,7.5,25.3c-14.9,4-43.6-13.1-37.6-26.2C761.6,379.4,777,383.1,786.1,388.2"/>
	<path class="st1" d="M797.9,361.3c14.8,7.3,21.3,18.7,12.7,22.3c-11.7,4.8-44.5-11.1-41-23.3C773.5,353.3,788.5,356.7,797.9,361.3"
		/>
	<path class="st2" d="M803.2,338c15.1,6.6,23.4,16.8,16.2,19.7c-9.7,4-43.1-10.5-42.5-21.1C779.1,330.6,793.9,333.9,803.2,338"/>
	<path class="st3" d="M802.1,318.5c14.9,5.9,25.2,14.9,19.7,17.1c-7.7,3-41.3-10.2-43.6-19.1C778.5,312,790.9,314,802.1,318.5"/>
	<path class="st4" d="M794.5,303.2c14.9,5.5,26.9,13,22.9,14.3c-5.2,1.8-39.3-10.6-44.2-17.2C771.9,296.9,783.1,299.1,794.5,303.2"
		/>
	<path class="st2" d="M376.9,369.4c6.6-5.2,10.4-7.9,10.9-8.2c0,0,0,0-11.3,8.6C376.6,369.6,376.8,369.5,376.9,369.4"/>
	<path class="st3" d="M376.9,369.4c6.4-5.7,9.8-8.2,10.2-8.5c-0.1,0.1-0.1,0.1-10.6,8.8C376.6,369.6,376.7,369.5,376.9,369.4"/>
	<path class="st4" d="M378.5,367.7c6.2-5.9,7.6-6.9,7.6-6.9c-0.1,0.1-0.1,0.1-9.7,8.9C377.1,369.1,377.8,368.4,378.5,367.7"/>
	<path class="st3" d="M417.8,341.2c10.2-6.2,18.1-10.1,20.4-10.6l0.2,0.2c-1.9,2-43.6,26-43.9,26.1
		C395.8,355.8,406.7,348,417.8,341.2"/>
	<path class="st1" d="M415.5,340.1c9.9-6.7,18.5-11.4,20-11.4c-0.8,1.7-41.6,27.5-41.9,27.7C394.7,355.2,404.8,347.3,415.5,340.1"/>
	<path class="st5" d="M412.3,339.7c10-7.4,17.5-11.7,19.1-12c-0.2,1.4-38.6,28.2-39,28.3C393.2,355,402.5,347,412.3,339.7"/>
	<path class="st3" d="M424.5,329.4c-10.1,8.6-21,16.3-31.3,24.7C403.4,345.2,413.8,336.9,424.5,329.4"/>
	<path class="st2" d="M466.5,312.8c10.2-4.8,20.1-8.3,22-7.7c-0.5,3-44.5,20.9-44.9,20.9C444.5,324.4,456.2,317.6,466.5,312.8"/>
	<path class="st3" d="M460.6,311.2c9.5-4.9,19.2-8.8,21.7-8.7l0.1,0.3c-2.4,2.6-41,21.4-42.6,21.5C440,323,450.7,316.3,460.6,311.2"
		/>
	<path class="st4" d="M462.3,306.1c6.1-2.9,10.4-4.5,11.6-4.3c-0.7,2.5-39.1,22-39.5,22.1l-0.1-0.2c0.5-0.6,1.7-1.7,6.1-4.8
		C447.6,314.3,454.9,310,462.3,306.1"/>
	<path class="st3" d="M521.6,294.2c11.9-3.5,22.8-5.2,23.3-3.5c-1.8,3.5-45.1,14.7-47.1,13.8C498.5,302.3,512.2,297,521.6,294.2"/>
	<path class="st1" d="M514.1,290.7c11.2-3.8,22.3-6.1,23.7-5c-0.3,2.7-42.7,15.6-45.3,15.1c0-0.1,0-0.3-0.1-0.4
		C494.3,298.4,504.1,294,514.1,290.7"/>
	<path class="st5" d="M503.7,289.4c10.1-3.8,21.5-6.7,23.8-6.2l0,0.4c-2.5,2.1-39.3,15.4-42.8,15.5l-0.2-0.1
		C485,297.3,494.8,292.7,503.7,289.4"/>
	<path class="st3" d="M513.5,283.9c-4.1,2.3-31.4,12.7-34.6,13.9C490.3,292.5,501.8,287.9,513.5,283.9"/>
	<path class="st2" d="M570.9,278.5c10.7-1.9,23.2-2.8,24.7-1.1c-0.3,3.6-44.1,9.7-47.1,8.5l-0.2-0.2
		C548.8,283.9,559.3,280.6,570.9,278.5"/>
	<path class="st3" d="M559,275.3c11-2.3,22.9-3.5,25.4-2.7l0.1,0.4c-2.8,2.1-40.4,9.6-45.2,9.1l-0.3-0.1
		C539.3,280.2,551.1,277,559,275.3"/>
	<path class="st4" d="M554.2,273c7.7-1.3,13.7-2.1,15.2-1.8l0,0.2c-2.2,1-37.9,9.3-42.7,9.6c-0.2,0-0.5,0-0.7-0.1
		c0.2-0.4,0.4-0.7,4.7-2.2C538.5,276.5,546.3,274.6,554.2,273"/>
	<path class="st3" d="M629.8,275.1c15.3-0.6,27,1.7,24.6,3.7c-3.2,2.7-42.7,4.6-47.5,1.1C605.6,277.7,618,275.6,629.8,275.1"/>
	<path class="st1" d="M617.6,269.4c11.3-0.7,25.2-0.3,26.3,1.4c-1.2,2.7-42.1,4.1-46.6,2.7c-0.2-0.1-0.4-0.3-0.4-0.4
		C597.7,271.7,606.8,270.1,617.6,269.4"/>
	<path class="st5" d="M600.9,267.3c11.8-0.9,25.1-1.1,27.4-0.5c-1.6,1.2-42,3.7-44.7,3.6c-0.2,0-0.5-0.1-0.8-0.2
		C583.2,269.1,593.8,267.9,600.9,267.3"/>
	<path class="st3" d="M595,267.4l10-0.6c-11.2,0.6-25.6,2.3-33.3,3.2C579.5,268.8,587.2,268,595,267.4"/>
	<path class="st2" d="M677.2,272c11.7,0.9,25.4,3.4,26.2,5.4c-1.4,2.6-40.9-0.6-47-3.8c-0.2-0.1-0.3-0.4-0.4-0.6
		C657,271.4,667.7,271.2,677.2,272"/>
	<path class="st3" d="M660.3,267.4c11.4,0.7,25.5,2.3,27.9,3.2c-1.8,1-41.7-2-45.7-2.8c-0.2-0.1-0.6-0.2-0.8-0.3l0.1-0.2
		C644.3,266.7,653.3,267,660.3,267.4"/>
	<path class="st4" d="M657.4,267.1c-12.5-0.8-27-1-33.7-0.9C633.8,266.5,647.3,266.5,657.4,267.1"/>
	<path class="st3" d="M736.9,283.4c14.1,3.1,26.9,8.2,25,9.9c-2.4,2.2-40.1-5.3-46.2-10.6c-1.9-2.7,9.1-1.6,16.5-0.2
		C733.7,282.7,735.5,283.1,736.9,283.4"/>
	<path class="st1" d="M721,275.9c10.9,2.2,25.3,5.8,27.4,7.2l-0.1,0.2c-4,0.3-39.2-7-45.5-9.3c-0.2-0.1-0.5-0.3-0.8-0.4l0.2-0.2
		C704.7,272.9,713.9,274.5,721,275.9"/>
	<path class="st5" d="M716.1,274.8c-3.9-0.8-14.2-2.7-26.5-4.4L716.1,274.8"/>
	<path class="st2" d="M780.4,292.7c11.1,3.8,24.6,9.4,26.3,11.3l-0.2,0.3c-4.6,0-37.8-11.7-44.4-15.7c-0.2-0.2-0.5-0.4-0.7-0.6
		l0.2-0.3C765,287.5,777.8,291.8,780.4,292.7"/>
	<path class="st3" d="M750.6,283l29.1,9.2c-6.9-2.5-18.6-6.3-30.4-9.6L750.6,283"/>
</g>
</svg>
